<svg width="35" height="35" viewBox="0 0 40 40" fill="none" xmlns="http://www.w3.org/2000/svg">
<path d="M33.8125 7H6.1875C4.42707 7 3 8.42707 3 10.1875V29.3125C3 31.0729 4.42707 32.5 6.1875 32.5H33.8125C35.5729 32.5 37 31.0729 37 29.3125V10.1875C37 8.42707 35.5729 7 33.8125 7ZM33.8125 10.1875V12.8972C32.3235 14.1097 29.9498 15.9951 24.8751 19.9688C23.7567 20.8485 21.5414 22.9619 20 22.9372C18.4588 22.9621 16.2428 20.8482 15.1249 19.9688C10.051 15.9957 7.67666 14.1099 6.1875 12.8972V10.1875H33.8125ZM6.1875 29.3125V16.9874C7.70913 18.1993 9.867 19.9001 13.156 22.4756C14.6075 23.6181 17.1493 26.1403 20 26.1249C22.8367 26.1403 25.3463 23.6547 26.8434 22.4761C30.1323 19.9007 32.2908 18.1995 33.8125 16.9874V29.3125H6.1875Z" fill="black"/>
</svg>
