<svg width="43" height="43" viewBox="0 0 40 40" fill="none" xmlns="http://www.w3.org/2000/svg">
<path d="M31.6708 8.81874C27.8208 6.19374 23.0666 7.41874 20.5 10.4229C17.9333 7.41874 13.1791 6.17916 9.32912 8.81874C7.28745 10.2187 6.00412 12.5812 5.91662 15.075C5.71245 20.7333 10.7291 25.2687 18.3854 32.225L18.5312 32.3562C19.6395 33.3625 21.3458 33.3625 22.4541 32.3417L22.6145 32.1958C30.2708 25.2542 35.2729 20.7187 35.0833 15.0604C34.9958 12.5812 33.7125 10.2187 31.6708 8.81874ZM20.6458 30.0521L20.5 30.1979L20.3541 30.0521C13.4125 23.7667 8.83329 19.6104 8.83329 15.3958C8.83329 12.4792 11.0208 10.2917 13.9375 10.2917C16.1833 10.2917 18.3708 11.7354 19.1437 13.7333H21.8708C22.6291 11.7354 24.8166 10.2917 27.0625 10.2917C29.9791 10.2917 32.1666 12.4792 32.1666 15.3958C32.1666 19.6104 27.5875 23.7667 20.6458 30.0521Z" fill="black"/>
</svg>
