<svg width="40" height="30" viewBox="0 0 36 27" fill="none" xmlns="http://www.w3.org/2000/svg">
<path d="M35.1553 7.875H30.9457L29.7757 4.95C28.5733 1.94273 25.7039 0 22.4646 0H13.5349C10.2963 0 7.42615 1.94273 6.2231 4.95L5.0531 7.875H0.844197C0.295057 7.875 -0.107834 8.39109 0.0257599 8.92336L0.447635 10.6109C0.54115 10.9863 0.87865 11.25 1.26607 11.25H2.67724C1.73295 12.0748 1.12474 13.2736 1.12474 14.625V18C1.12474 19.1334 1.55787 20.1565 2.24974 20.9482V24.75C2.24974 25.9924 3.25732 27 4.49974 27H6.74974C7.99217 27 8.99974 25.9924 8.99974 24.75V22.5H26.9997V24.75C26.9997 25.9924 28.0073 27 29.2497 27H31.4997C32.7422 27 33.7497 25.9924 33.7497 24.75V20.9482C34.4416 20.1572 34.8747 19.1341 34.8747 18V14.625C34.8747 13.2736 34.2665 12.0748 33.3229 11.25H34.7341C35.1215 11.25 35.459 10.9863 35.5526 10.6109L35.9744 8.92336C36.1073 8.39109 35.7044 7.875 35.1553 7.875ZM10.4011 6.62133C10.9136 5.34023 12.1547 4.5 13.5349 4.5H22.4646C23.8448 4.5 25.0858 5.34023 25.5984 6.62133L26.9997 10.125H8.99974L10.4011 6.62133ZM6.74974 17.9859C5.39974 17.9859 4.49974 17.0887 4.49974 15.743C4.49974 14.3972 5.39974 13.5 6.74974 13.5C8.09974 13.5 10.1247 15.5187 10.1247 16.8645C10.1247 18.2102 8.09974 17.9859 6.74974 17.9859ZM29.2497 17.9859C27.8997 17.9859 25.8747 18.2102 25.8747 16.8645C25.8747 15.5187 27.8997 13.5 29.2497 13.5C30.5997 13.5 31.4997 14.3972 31.4997 15.743C31.4997 17.0887 30.5997 17.9859 29.2497 17.9859Z" fill="#FFAE00"/>
</svg>
